<svg width="24" height="24" viewBox="0 0 24 24" fill="none" xmlns="http://www.w3.org/2000/svg">
<path d="M4.29593 12.0001L12.7879 20.7271C12.8578 20.7974 12.9131 20.8809 12.9506 20.9727C12.988 21.0646 13.0068 21.1629 13.006 21.2621C13.0052 21.3613 12.9847 21.4593 12.9458 21.5505C12.9068 21.6417 12.8501 21.7242 12.7791 21.7934C12.708 21.8625 12.6239 21.9169 12.5317 21.9534C12.4395 21.9898 12.3409 22.0076 12.2418 22.0057C12.1426 22.0038 12.0448 21.9823 11.954 21.9424C11.8633 21.9024 11.7813 21.8449 11.7129 21.7731L2.71293 12.5231C2.57671 12.3831 2.50049 12.1954 2.50049 12.0001C2.50049 11.8047 2.57671 11.6171 2.71293 11.4771L11.7129 2.22709C11.7813 2.15528 11.8633 2.09774 11.954 2.05781C12.0448 2.01788 12.1426 1.99635 12.2418 1.99446C12.3409 1.99257 12.4395 2.01037 12.5317 2.04681C12.6239 2.08326 12.708 2.13764 12.7791 2.20679C12.8501 2.27595 12.9068 2.35852 12.9458 2.44971C12.9847 2.54091 13.0052 2.63893 13.006 2.73809C13.0068 2.83726 12.988 2.9356 12.9506 3.02744C12.9131 3.11927 12.8578 3.20276 12.7879 3.27309L4.29593 12.0001Z" fill="black" fill-opacity="0.5"/>
</svg>
