<svg width="24" height="24" viewBox="0 0 24 24" fill="none" xmlns="http://www.w3.org/2000/svg">
<path d="M10.7954 12.0001L19.2874 20.7271C19.3574 20.7974 19.4126 20.8809 19.4501 20.9727C19.4875 21.0646 19.5063 21.1629 19.5055 21.2621C19.5047 21.3613 19.4842 21.4593 19.4453 21.5505C19.4063 21.6417 19.3497 21.7242 19.2786 21.7934C19.2075 21.8625 19.1234 21.9169 19.0312 21.9534C18.939 21.9898 18.8404 22.0076 18.7413 22.0057C18.6421 22.0038 18.5443 21.9823 18.4536 21.9424C18.3628 21.9024 18.2808 21.8449 18.2124 21.7731L9.21244 12.5231C9.07622 12.3831 9 12.1954 9 12.0001C9 11.8047 9.07622 11.6171 9.21244 11.4771L18.2124 2.22709C18.2808 2.15528 18.3628 2.09774 18.4536 2.05781C18.5443 2.01788 18.6421 1.99635 18.7413 1.99446C18.8404 1.99257 18.939 2.01037 19.0312 2.04681C19.1234 2.08326 19.2075 2.13764 19.2786 2.20679C19.3497 2.27595 19.4063 2.35852 19.4453 2.44971C19.4842 2.54091 19.5047 2.63893 19.5055 2.73809C19.5063 2.83726 19.4875 2.9356 19.4501 3.02744C19.4126 3.11927 19.3574 3.20276 19.2874 3.27309L10.7954 12.0001Z" fill="black" fill-opacity="0.5"/>
<path d="M2.79544 12.0001L11.2874 20.7271C11.3574 20.7974 11.4126 20.8809 11.4501 20.9727C11.4875 21.0646 11.5063 21.1629 11.5055 21.2621C11.5047 21.3613 11.4842 21.4593 11.4453 21.5505C11.4063 21.6417 11.3497 21.7242 11.2786 21.7934C11.2075 21.8625 11.1234 21.9169 11.0312 21.9534C10.939 21.9898 10.8404 22.0076 10.7413 22.0057C10.6421 22.0038 10.5443 21.9823 10.4536 21.9424C10.3628 21.9024 10.2808 21.8449 10.2124 21.7731L1.21244 12.5231C1.07622 12.3831 1 12.1954 1 12.0001C1 11.8047 1.07622 11.6171 1.21244 11.4771L10.2124 2.22709C10.2808 2.15528 10.3628 2.09774 10.4536 2.05781C10.5443 2.01788 10.6421 1.99635 10.7413 1.99446C10.8404 1.99257 10.939 2.01037 11.0312 2.04681C11.1234 2.08326 11.2075 2.13764 11.2786 2.20679C11.3497 2.27595 11.4063 2.35852 11.4453 2.44971C11.4842 2.54091 11.5047 2.63893 11.5055 2.73809C11.5063 2.83726 11.4875 2.9356 11.4501 3.02744C11.4126 3.11927 11.3574 3.20276 11.2874 3.27309L2.79544 12.0001Z" fill="black" fill-opacity="0.5"/>
</svg>
