<svg width="25" height="21" viewBox="0 0 25 21" fill="none" xmlns="http://www.w3.org/2000/svg">
<path d="M5.25 15.0938C5.44891 15.0938 5.63968 15.1629 5.78033 15.286C5.92098 15.409 6 15.576 6 15.75V17.7188C6 17.8395 6.112 17.9375 6.25 17.9375H18.75C18.8163 17.9375 18.8799 17.9145 18.9268 17.8734C18.9737 17.8324 19 17.7768 19 17.7188V15.75C19 15.576 19.079 15.409 19.2197 15.286C19.3603 15.1629 19.5511 15.0938 19.75 15.0938C19.9489 15.0938 20.1397 15.1629 20.2803 15.286C20.421 15.409 20.5 15.576 20.5 15.75V17.7188C20.5 18.1249 20.3156 18.5143 19.9874 18.8015C19.6592 19.0887 19.2141 19.25 18.75 19.25H6.25C5.78587 19.25 5.34075 19.0887 5.01256 18.8015C4.68437 18.5143 4.5 18.1249 4.5 17.7188V15.75C4.5 15.576 4.57902 15.409 4.71967 15.286C4.86032 15.1629 5.05109 15.0938 5.25 15.0938Z" fill="white"/>
<path d="M5.72 8.72375C5.78956 8.66279 5.87218 8.61444 5.96312 8.58144C6.05406 8.54845 6.15155 8.53147 6.25 8.53147C6.34845 8.53147 6.44593 8.54845 6.53687 8.58144C6.62782 8.61444 6.71043 8.66279 6.78 8.72375L11.75 13.0716V2.40625C11.75 2.2322 11.829 2.06528 11.9697 1.94221C12.1103 1.81914 12.3011 1.75 12.5 1.75C12.6989 1.75 12.8897 1.81914 13.0303 1.94221C13.171 2.06528 13.25 2.2322 13.25 2.40625V13.0716L18.22 8.72375C18.3606 8.60076 18.5512 8.53166 18.75 8.53166C18.9488 8.53166 19.1394 8.60076 19.28 8.72375C19.4206 8.84674 19.4995 9.01356 19.4995 9.1875C19.4995 9.36144 19.4206 9.52826 19.28 9.65125L13.03 15.12C12.9604 15.181 12.8778 15.2293 12.7869 15.2623C12.6959 15.2953 12.5984 15.3123 12.5 15.3123C12.4015 15.3123 12.3041 15.2953 12.2131 15.2623C12.1222 15.2293 12.0396 15.181 11.97 15.12L5.72 9.65125C5.65033 9.59038 5.59507 9.51809 5.55736 9.43852C5.51965 9.35894 5.50024 9.27364 5.50024 9.1875C5.50024 9.10136 5.51965 9.01606 5.55736 8.93648C5.59507 8.85691 5.65033 8.78462 5.72 8.72375Z" fill="white"/>
</svg>
