<svg width="24" height="24" viewBox="0 0 24 24" fill="none" xmlns="http://www.w3.org/2000/svg">
<path d="M13.2046 12.0001L4.71256 20.7271C4.64264 20.7974 4.58737 20.8809 4.54994 20.9727C4.5125 21.0646 4.49365 21.1629 4.49447 21.2621C4.4953 21.3613 4.51578 21.4593 4.55474 21.5505C4.59369 21.6417 4.65034 21.7242 4.72142 21.7934C4.79249 21.8625 4.87658 21.9169 4.96881 21.9534C5.06103 21.9898 5.15958 22.0076 5.25873 22.0057C5.35788 22.0038 5.45567 21.9823 5.54644 21.9424C5.63722 21.9024 5.71917 21.8449 5.78756 21.7731L14.7876 12.5231C14.9238 12.3831 15 12.1954 15 12.0001C15 11.8047 14.9238 11.6171 14.7876 11.4771L5.78756 2.22709C5.71917 2.15528 5.63722 2.09774 5.54644 2.05781C5.45567 2.01788 5.35788 1.99635 5.25873 1.99446C5.15958 1.99257 5.06103 2.01037 4.96881 2.04681C4.87658 2.08326 4.79249 2.13764 4.72142 2.20679C4.65034 2.27595 4.59369 2.35852 4.55474 2.44971C4.51578 2.54091 4.4953 2.63893 4.49447 2.73809C4.49365 2.83726 4.5125 2.9356 4.54994 3.02744C4.58737 3.11927 4.64264 3.20276 4.71256 3.27309L13.2046 12.0001Z" fill="black" fill-opacity="0.5"/>
<path d="M21.2046 12.0001L12.7126 20.7271C12.6426 20.7974 12.5874 20.8809 12.5499 20.9727C12.5125 21.0646 12.4937 21.1629 12.4945 21.2621C12.4953 21.3613 12.5158 21.4593 12.5547 21.5505C12.5937 21.6417 12.6503 21.7242 12.7214 21.7934C12.7925 21.8625 12.8766 21.9169 12.9688 21.9534C13.061 21.9898 13.1596 22.0076 13.2587 22.0057C13.3579 22.0038 13.4557 21.9823 13.5464 21.9424C13.6372 21.9024 13.7192 21.8449 13.7876 21.7731L22.7876 12.5231C22.9238 12.3831 23 12.1954 23 12.0001C23 11.8047 22.9238 11.6171 22.7876 11.4771L13.7876 2.22709C13.7192 2.15528 13.6372 2.09774 13.5464 2.05781C13.4557 2.01788 13.3579 1.99635 13.2587 1.99446C13.1596 1.99257 13.061 2.01037 12.9688 2.04681C12.8766 2.08326 12.7925 2.13764 12.7214 2.20679C12.6503 2.27595 12.5937 2.35852 12.5547 2.44971C12.5158 2.54091 12.4953 2.63893 12.4945 2.73809C12.4937 2.83726 12.5125 2.9356 12.5499 3.02744C12.5874 3.11927 12.6426 3.20276 12.7126 3.27309L21.2046 12.0001Z" fill="black" fill-opacity="0.5"/>
</svg>
