<svg width="27" height="35" viewBox="0 0 27 35" fill="none" xmlns="http://www.w3.org/2000/svg">
<path d="M1.83341 0.297363H25.1667C26.0872 0.297363 26.8334 1.04356 26.8334 1.96403V33.8695C26.8334 34.3297 26.4602 34.703 26.0001 34.703C25.8436 34.703 25.6901 34.6587 25.5574 34.5755L13.5001 27.0162L1.44273 34.5755C1.0528 34.82 0.538514 34.7022 0.294031 34.3122C0.210864 34.1795 0.166748 34.0262 0.166748 33.8695V1.96403C0.166748 1.04356 0.912948 0.297363 1.83341 0.297363ZM23.5001 3.6307H3.50008V29.3514L13.5001 23.0819L23.5001 29.3514V3.6307Z" fill="url(#paint0_linear_218_787)"/>
<defs>
<linearGradient id="paint0_linear_218_787" x1="0.166748" y1="0.459113" x2="26.5084" y2="34.8826" gradientUnits="userSpaceOnUse">
<stop stop-color="#1878D0"/>
<stop offset="1" stop-color="#0F589A"/>
</linearGradient>
</defs>
</svg>
