<svg width="35" height="33" viewBox="0 0 35 33" fill="none" xmlns="http://www.w3.org/2000/svg">
<path d="M0 2.48845C0 1.52833 0.796793 0.75 1.73565 0.75H33.2644C34.223 0.75 35 1.52866 35 2.48845V30.5115C35 31.4716 34.2032 32.25 33.2644 32.25H1.73565C0.777088 32.25 0 31.4714 0 30.5115V2.48845ZM10.5 4.25V28.75H24.5V4.25H10.5ZM3.5 4.25V7.75H7V4.25H3.5ZM28 4.25V7.75H31.5V4.25H28ZM3.5 11.25V14.75H7V11.25H3.5ZM28 11.25V14.75H31.5V11.25H28ZM3.5 18.25V21.75H7V18.25H3.5ZM28 18.25V21.75H31.5V18.25H28ZM3.5 25.25V28.75H7V25.25H3.5ZM28 25.25V28.75H31.5V25.25H28Z" fill="url(#paint0_linear_246_354)"/>
<defs>
<linearGradient id="paint0_linear_246_354" x1="0" y1="0.75" x2="34.125" y2="32.25" gradientUnits="userSpaceOnUse">
<stop stop-color="#1878D0"/>
<stop offset="1" stop-color="#0F589A"/>
</linearGradient>
</defs>
</svg>
