<svg width="24" height="24" viewBox="0 0 24 24" fill="none" xmlns="http://www.w3.org/2000/svg">
<path d="M19.7041 12.0001L11.2121 20.7271C11.1422 20.7974 11.0869 20.8809 11.0494 20.9727C11.012 21.0646 10.9932 21.1629 10.994 21.2621C10.9948 21.3613 11.0153 21.4593 11.0542 21.5505C11.0932 21.6417 11.1499 21.7242 11.2209 21.7934C11.292 21.8625 11.3761 21.9169 11.4683 21.9534C11.5605 21.9898 11.6591 22.0076 11.7582 22.0057C11.8574 22.0038 11.9552 21.9823 12.046 21.9424C12.1367 21.9024 12.2187 21.8449 12.2871 21.7731L21.2871 12.5231C21.4233 12.3831 21.4995 12.1954 21.4995 12.0001C21.4995 11.8047 21.4233 11.6171 21.2871 11.4771L12.2871 2.22709C12.2187 2.15528 12.1367 2.09774 12.046 2.05781C11.9552 2.01788 11.8574 1.99635 11.7582 1.99446C11.6591 1.99257 11.5605 2.01037 11.4683 2.04681C11.3761 2.08326 11.292 2.13764 11.2209 2.20679C11.1499 2.27595 11.0932 2.35852 11.0542 2.44971C11.0153 2.54091 10.9948 2.63893 10.994 2.73809C10.9932 2.83726 11.012 2.9356 11.0494 3.02744C11.0869 3.11927 11.1422 3.20276 11.2121 3.27309L19.7041 12.0001Z" fill="black" fill-opacity="0.5"/>
</svg>
