<svg width="41" height="37" viewBox="0 0 41 37" fill="none" xmlns="http://www.w3.org/2000/svg">
<path d="M36.9999 20.7772V33.1665H38.8333V36.8332H2.16659V33.1665H3.99992V20.7772C1.78894 19.2973 0.333252 16.7769 0.333252 13.9165C0.333252 12.4001 0.744707 10.9396 1.49416 9.69518L6.4663 1.08317C6.79379 0.515937 7.39903 0.166504 8.054 0.166504H32.9459C33.6007 0.166504 34.2061 0.515937 34.5335 1.08317L39.4887 9.66632C40.2552 10.9396 40.6666 12.4001 40.6666 13.9165C40.6666 16.7769 39.2109 19.2973 36.9999 20.7772ZM33.3333 22.1161C33.0322 22.1495 32.7264 22.1665 32.4166 22.1665C30.1082 22.1665 27.9779 21.2095 26.4583 19.624C24.9386 21.2095 22.8083 22.1665 20.4999 22.1665C18.1916 22.1665 16.0612 21.2095 14.5416 19.624C13.0219 21.2095 10.8916 22.1665 8.58325 22.1665C8.27342 22.1665 7.96756 22.1495 7.66658 22.1161V33.1665H33.3333V22.1161ZM9.11244 3.83317L4.65255 11.5574C4.22742 12.2636 3.99992 13.0712 3.99992 13.9165C3.99992 16.4478 6.05195 18.4998 8.58325 18.4998C10.4733 18.4998 12.1485 17.3454 12.8399 15.6206C13.4552 14.0856 15.628 14.0856 16.2433 15.6206C16.9346 17.3454 18.6098 18.4998 20.4999 18.4998C22.3901 18.4998 24.0652 17.3454 24.7566 15.6206C25.3718 14.0856 27.5447 14.0856 28.16 15.6206C28.8513 17.3454 30.5264 18.4998 32.4166 18.4998C34.9479 18.4998 36.9999 16.4478 36.9999 13.9165C36.9999 13.0712 36.7724 12.2636 36.3302 11.5285L31.8873 3.83317H9.11244Z" fill="url(#paint0_linear_214_456)"/>
<defs>
<linearGradient id="paint0_linear_214_456" x1="0.259883" y1="0.0197654" x2="40.7399" y2="36.9798" gradientUnits="userSpaceOnUse">
<stop stop-color="#1878D0"/>
<stop offset="1" stop-color="#0F589A"/>
</linearGradient>
</defs>
</svg>
