<svg width="30" height="28" viewBox="0 0 30 28" fill="none" xmlns="http://www.w3.org/2000/svg">
<path d="M2.34347 9.76001H27.2801M2.34347 18.398H27.2801M1.45288 14.079C1.45288 15.7805 1.79842 17.4654 2.46977 19.0374C3.14111 20.6094 4.12512 22.0377 5.36561 23.2409C6.6061 24.4441 8.07877 25.3985 9.69954 26.0496C11.3203 26.7008 13.0575 27.0359 14.8118 27.0359C16.5661 27.0359 18.3032 26.7008 19.924 26.0496C21.5448 25.3985 23.0174 24.4441 24.2579 23.2409C25.4984 22.0377 26.4824 20.6094 27.1538 19.0374C27.8251 17.4654 28.1707 15.7805 28.1707 14.079C28.1707 10.6426 26.7632 7.34695 24.2579 4.91706C21.7527 2.48717 18.3548 1.12207 14.8118 1.12207C11.2688 1.12207 7.87089 2.48717 5.36561 4.91706C2.86033 7.34695 1.45288 10.6426 1.45288 14.079Z" stroke="white" stroke-width="1.86885" stroke-linecap="round" stroke-linejoin="round"/>
<path d="M14.0697 1.12207C11.5691 5.00859 10.2434 9.4978 10.2434 14.079C10.2434 18.6602 11.5691 23.1494 14.0697 27.0359M15.554 1.12207C18.0546 5.00859 19.3803 9.4978 19.3803 14.079C19.3803 18.6602 18.0546 23.1494 15.554 27.0359" stroke="white" stroke-width="1.86885" stroke-linecap="round" stroke-linejoin="round"/>
</svg>
